<svg width="745" height="250" viewBox="0 0 745 250" fill="none" xmlns="http://www.w3.org/2000/svg" xmlns:xlink="http://www.w3.org/1999/xlink">
  <defs>
    <style>
      .name { font-family: -apple-system, BlinkMacSystemFont, "Segoe UI", Helvetica, Arial, sans-serif; font-weight: bold; font-size: 52px; fill: #ffffff; }
      .title { font-family: -apple-system, BlinkMacSystemFont, "Segoe UI", Helvetica, Arial, sans-serif; font-weight: 500; font-size: 22px; fill: #58a6ff; }
    </style>
  </defs>

  <!-- Dark Background Container -->
  <rect width="745" height="250" rx="15" fill="#0d1117"/>
  
  <!-- Logo Box Area -->
  <rect x="60" y="65" width="120" height="120" rx="28" fill="#21262d"/>
  
  <!-- LOGO SVG CONTAINER -->
  <!-- I added a transform scale(0.12) because your path coordinates are very large (~800-1000 units) -->
  <g transform="translate(72, 78) scale(0.14)">
    <!-- Path 1 (Dark Detail) -->
    <path d="M0 0 C1.674 0.023 1.674 0.023 3.382 0.046 C23.862 0.349 41.55 2.544 59.925 12.298 C62.491 13.692 62.491 13.692 65.284 14.618 C66.019 14.952 66.754 15.286 67.511 15.63 C67.841 16.62 68.171 17.61 68.511 18.63 C69.501 18.63 70.491 18.63 71.511 18.63 C71.511 19.29 71.511 19.95 71.511 20.63 C73.986 21.125 73.986 21.125 76.511 21.63 C76.511 22.62 76.511 23.61 76.511 24.63 C78.986 25.125 78.986 25.125 81.511 25.63 C81.511 26.29 81.511 26.95 81.511 27.63 C82.171 27.63 82.831 27.63 83.511 27.63 C83.511 28.29 83.511 28.95 83.511 29.63 C84.501 29.96 85.491 30.29 86.511 30.63 C88.511 33.63 88.511 33.63 88.511 36.63 C89.17 36.63 89.831 36.63 90.511 36.63 C90.511 37.29 90.511 37.95 90.511 38.63 C91.171 38.63 91.831 38.63 92.511 38.63 C92.841 39.95 93.171 41.27 93.511 42.63 C94.171 42.63 94.831 42.63 95.511 42.63 C95.841 43.62 96.171 44.61 96.511 45.63 C97.171 45.96 97.831 46.29 98.511 46.63 C103.38 54.786 106.48 63.67 109.51 72.63 C109.96 73.798 109.96 73.798 110.417 74.989 C115.183 87.666 114.804 101.696 114.772 115.037 C114.775 116.85 114.779 118.67 114.783 120.48 C114.79 125.44 114.79 130.39 114.787 135.35 C114.785 140.7 114.79 146.06 114.8 151.42 C114.814 161.9 114.816 172.38 114.81 182.86 C114.81 191.38 114.81 199.9 114.818 208.4 C114.81 209.64 114.81 210.85 114.819 212.11 C114.82 214.57 114.82 217.04 114.823 219.5 C114.83 242.63 114.83 265.75 114.82 288.8 C114.82 310.01 114.83 331.14 114.85 352.2 C114.87 374 114.87 395.7 114.87 417.4 C114.87 429.6 114.87 441.8 114.88 454 C114.9 464.3 114.9 474.7 114.89 485.1 C114.88 490.4 114.88 495.7 114.89 500.9 C114.9 505.8 114.9 510.6 114.88 515.5 C114.88 517.2 114.88 519 114.89 520.7 C114.98 540.513 111.24 559.21 101.51 576.6 C100.62 578.25 100.62 578.25 99.71 579.9 C96.14 586.24 96.14 586.24 94.51 588.6 H 92.5 V 591.6 C91.19 592.65 89.85 593.65 88.51 594.6 V 597.6 C84.94 598.8 84.94 598.8 82.51 599.6 V 601.6 C80.74 603 78.92 604.3 77.07 605.6 C73.18 608.08 73.18 608.08 70.51 611.6 C68.11 612.9 65.72 614.2 63.26 615.4 C62.53 615.7 61.8 616.1 61.06 616.5 C50.24 621.7 40.02 625.2 28.16 627.05 C24.79 627.5 24.79 627.5 22.72 628.1 C19.62 628.8 16.66 628.7 13.49 628.7 H 11.34 C8.97 628.7 6.6 628.7 4.22 628.7 C2.52 628.7 0.81 628.7 -0.88 628.7 C-5.53 628.7 -10.18 628.7 -14.83 628.7 C-19.7 628.7 -24.6 628.7 -29.6 628.7 C-37.9 628.7 -46.2 628.7 -54.6 628.7 C-63.05 628.7 -71.48 628.7 -79.92 628.7 C-165.2 628.8 -165.2 628.8 -206.4 627.8 C-207.6 627.8 -208.7 627.8 -209.9 627.8 C-212.1 627.7 -214.2 627.7 -216.3 627.6 C-217.3 627.6 -218.2 627.6 -219.1 627.6 C-219.9 627.5 -220.7 627.5 -221.5 627.5 C-223.5 627.5 -223.5 627.5 -225.4 628.6 C-228.5 628.7 -231.6 628.7 -234.7 628.7 C-236.2 628.7 -236.2 628.7 -237.7 628.7 C-241 628.7 -244.3 628.7 -247.6 628.7 C-249.9 628.7 -252.3 628.7 -254.6 628.7 C-261 628.7 -267.4 628.7 -273.8 628.7 C-277.8 628.7 -281.9 628.8 -285.9 628.8 C-299.1 628.8 -312.4 628.8 -325.6 628.8 H -327.8 C-328.5 628.8 -329.2 628.8 -330 628.8 C-341.5 628.8 -353.1 628.8 -364.7 628.8 C-376.6 628.8 -388.5 628.8 -400.4 628.8 C-407 628.8 -413.7 628.8 -420.4 628.8 C-426.7 628.8 -433 628.8 -439.2 628.8 C-441.5 628.8 -443.8 628.8 -446.1 628.8 C-466.3 628.9 -484.1 627.5 -502.4 618.6 C-503.4 618.2 -504.4 617.7 -505.3 617.3 C-513.8 613.4 -520.8 608.1 -527.4 601.6 V 599.6 C-528.1 599.3 -528.7 599 -529.4 598.8 C-531.4 597.6 -531.4 597.6 -532.4 594.6 C-533 594.3 -533.6 594 -534.2 593.8 C-537.4 592.1 -538.9 589.6 -541.1 586.6 V 583.4 C-547.4 577.8 -547.4 577.8 -547.4 573.6 H -549.4 C-550.7 570.5 -552 567.5 -553.3 564.5 V 561.9 C-554.8 561.07 -555.1 560.2 -555.5 559.3 V 557.05 C-561.7 543.8 -561.7 529.7 -561.7 515.7 V 510.8 C-561.7 506.3 -561.7 501.9 -561.7 497.4 V 483.01 C-561.7 473.5 -561.7 464.1 -561.7 454.6 C-561.7 443.6 -561.7 432.6 -561.7 421.5 C-561.7 401.8 -561.7 382.1 -561.6 362.4 C-561.6 343.3 -561.6 324.2 -561.6 305.2 V 301.7 V 298.1 C-561.6 276.3 -561.6 254.5 -561.6 232.7 C-561.6 225.1 -561.6 217.4 -561.6 209.8 C-561.6 200.4 -561.6 191.1 -561.6 181.7 V 167.4 C-561.6 147.8 -561.4 128.2 -561.04 108.6 C-561.02 107.7 -561 106.8 -560.9 105.8 C-560.9 103.3 -560.8 100.7 -560.7 98.2 C-560.7 97.1 -560.7 97.1 -560.7 95.9 C-560.5 87.6 -559.6 80.3 -556.4 72.6 V 69.8 C-553.8 64.9 -551.6 60.3 -549.4 55.6 H -547.4 V 53.4 C-546.3 50.1 -545.02 48.08 -543.05 45.3 V 42.6 C-540.6 41.9 -540 41.3 -539.4 40.6 H -537.4 V 38.1 V 35.6 H -532.4 V 32.6 C-530.4 30.6 -530.4 30.6 -527.4 29.6 C-527.1 29 -526.8 28.4 -526.5 27.8 C-523.3 21.3 -515 17 -508.8 13.8 C-507.2 13 -505.6 12.1 -504.1 11.1 C-491.8 3.8 -477.1 0.5 -462.9 0.4 H -460.7 C-458.3 0.4 -455.8 0.4 -453.4 0.4 C-451.6 0.4 -449.8 0.4 -448.1 0.4 C-443.2 0.4 -438.4 0.4 -433.5 0.4 C-428.3 0.4 -423 0.3 -417.8 0.3 C-407.5 0.3 -397.2 0.3 -386.9 0.3 C-378.5 0.2 -370.1 0.2 -361.8 0.2 V 0.2 C-355.7 0.2 -353.3 0.2 -350.8 0.2 C-328 0.1 -305.2 0.1 -282.4 0.06 C-262.9 0.02 -243.4 -0.02 -224 -0.07 C-201.3 -0.1 -178.7 -0.1 -156 -0.2 C-153.6 -0.2 -151.1 -0.2 -148.7 -0.2 H -145.1 C-136.7 -0.2 -128.4 -0.2 -120.1 -0.3 H 0 Z" fill="#000001" transform="translate(572, 10)"/>
    
    <!-- Path 2 (White Logo Structure) -->
    <path d="M0 0 C45.68 -0.06 91.36 -0.12 137.04 -0.15 C142.44 -0.15 147.84 -0.16 153.24 -0.16 C154.32 -0.16 155.39 -0.16 156.5 -0.16 C173.88 -0.18 191.26 -0.2 208.64 -0.23 C226.49 -0.25 244.33 -0.27 262.18 -0.28 C273.18 -0.28 284.19 -0.29 295.19 -0.32 C302.75 -0.33 310.3 -0.34 317.86 -0.34 C322.21 -0.33 326.56 -0.34 330.92 -0.35 C364.39 -0.47 364.39 -0.47 379 3 C379.6 3.1 380.3 3.3 381 3.4 C410.4 10.2 436.2 27.5 453 53 C469.7 80.3 477.07 116.5 469.53 147.9 C463.8 170.02 453.4 188.1 438 205 C439.4 208.6 441.5 210.5 444.5 213.1 C470.6 236.1 484.5 264.3 486.8 299.3 C488.06 325.9 481.6 354.1 466 376 V 379 C443.8 406.6 411.4 424.4 378 430 C364.06 431.3 350.0 431 336 431 V 356 C338.6 354.6 340.7 354.7 343.6 354.6 C368.2 353.4 368.2 353.4 389 341 C396.5 332.5 400.5 322.3 401 311 V 308.1 C401.5 294.9 397.9 281 388.7 271.1 C365.4 250.1 327.1 257.4 300 257 V 431 H 218 V 205.4 V 184.5 V 158.8 V 145.6 V 133.4 V 128.9 V 122.9 V 119.6 C219 117 219 117 220 115 H 299 V 161.3 V 165.1 V 174 H 319.9 H 326.7 H 336.5 H 339.5 C351.2 173.1 362.7 171.1 372 163.5 C373.9 161.0 375.4 158.6 377 156 V 154.6 C380.4 152.5 381.1 150.4 382.1 147.6 V 144.7 C387.3 131.1 386.0 114.7 380.25 101.7 C374.8 91.9 366.7 85.5 356 82.4 C350.1 80.8 344.6 80.5 338.6 80.4 H 335.3 C301.8 80.0 268.2 79.9 234.7 79.9 H 216.4 H 181 V 81.8 V 188.5 V 201.5 V 204.1 V 245.3 V 287.8 V 311.6 V 405.7 V 409.7 V 420.4 V 423.6 V 426.5 V 429.1 C180 431 180 431 179 432 H 171.8 H 169.5 C167.0 432.1 164.5 432.1 162.0 432.0 C160.5 432.0 159.0 432.0 157.4 432.0 C154.0 432.0 150.6 432.0 147.2 432.0 C138.9 432.0 130.7 432.0 122.5 432.0 C118.2 432.0 113.9 432.0 109.6 432.0 C108.1 432.0 106.6 432.0 105.1 432.0 H 102 C101.0 383.8 100.8 335.7 100.9 287.5 V 285.2 C100.9 265.9 100.9 246.7 100.9 227.4 V 193.8 V 191.4 V 179.3 V 81 H 0 V 49.2 V 44.9 V 33.7 V 22.3 V 0 Z" fill="#FDFDFD" transform="translate(111, 108)"/>
  </g>

  <!-- Text Section -->
  <g transform="translate(210, 115)">
    <text x="0" y="0" class="name">Taha Bouras</text>
    <text x="0" y="40" class="title">Backend Developer &amp; Data Extraction Engineer</text>
  </g>
  
  <!-- Blue Accent Line -->
  <rect x="210" y="175" width="475" height="2" fill="#30363d"/>
  <rect x="210" y="175" width="100" height="2" fill="#58a6ff"/>
</svg>